<!DOCTYPE svg PUBLIC "-//W3C//DTD SVG 1.1//EN" "http://www.w3.org/Graphics/SVG/1.1/DTD/svg11.dtd">
<!-- Uploaded to: SVG Repo, www.svgrepo.com, Transformed by: SVG Repo Mixer Tools -->
<svg height="256px" width="256px" version="1.1" id="Layer_1" xmlns="http://www.w3.org/2000/svg" xmlns:xlink="http://www.w3.org/1999/xlink" viewBox="0 0 511.999 511.999" xml:space="preserve" fill="#000000">
<g id="SVGRepo_bgCarrier" stroke-width="0"/>
<g id="SVGRepo_tracerCarrier" stroke-linecap="round" stroke-linejoin="round"/>
<g id="SVGRepo_iconCarrier"> <path style="fill:#70E5CF;" d="M265.646,45.804v69.44c0,15.453-12.519,27.971-27.971,27.971h-68.116l-59.234,36.037l-26.855,16.35 l11.23-52.387H36.604c-3.843,0-7.502-0.771-10.816-2.175c-10.091-4.223-17.156-14.176-17.156-25.797v-69.44 c0-15.441,12.507-27.971,27.971-27.971h201.07C253.127,17.833,265.646,30.363,265.646,45.804z"/> <path style="fill:#F95428;" d="M503.374,195.81v69.428c0,15.441-12.53,27.971-27.971,27.971H358.615l11.23,52.387l-42.573-25.912 l-43.505-26.476h-28.811c-15.453,0-27.971-12.53-27.971-27.971V195.81c0-15.464,12.519-27.971,27.971-27.971h220.446 C490.844,167.838,503.374,180.345,503.374,195.81z"/> <path style="fill:#70E5CF;" d="M265.646,344.365v69.44c0,15.453-12.519,27.971-27.971,27.971h-68.116l-86.089,52.387l11.23-52.387 H36.604c-3.843,0-7.502-0.771-10.816-2.175c-10.091-4.223-17.156-14.176-17.156-25.797v-69.44c0-15.441,12.507-27.971,27.971-27.971 h201.07C253.127,316.394,265.646,328.924,265.646,344.365z"/> <path style="fill:#35D8B9;" d="M31.645,115.244v-69.44c0-15.441,12.507-27.971,27.971-27.971H36.604 c-15.464,0-27.971,12.53-27.971,27.971v69.44c0,11.621,7.065,21.574,17.156,25.797c3.314,1.404,6.973,2.175,10.816,2.175h23.012 c-3.843,0-7.502-0.771-10.816-2.175C38.71,136.818,31.645,126.865,31.645,115.244z"/> <path style="fill:#E54728;" d="M249.997,265.238V195.81c0-15.464,12.519-27.971,27.971-27.971h-23.012 c-15.453,0-27.971,12.507-27.971,27.971v69.428c0,15.441,12.519,27.971,27.971,27.971h23.012 C262.516,293.209,249.997,280.679,249.997,265.238z"/> <path style="fill:#35D8B9;" d="M31.645,413.805v-69.44c0-15.441,12.507-27.971,27.971-27.971H36.604 c-15.464,0-27.971,12.53-27.971,27.971v69.44c0,11.621,7.065,21.574,17.156,25.797c3.314,1.404,6.973,2.175,10.816,2.175h23.012 c-3.843,0-7.502-0.771-10.816-2.175C38.71,435.379,31.645,425.426,31.645,413.805z"/> <g> <path style="fill:#333333;" d="M475.4,159.205H254.954c-20.182,0-36.6,16.419-36.6,36.6v69.427c0,20.182,16.419,36.6,36.6,36.6 h26.398l84.003,51.14c1.382,0.841,2.935,1.259,4.486,1.259c1.755,0,3.505-0.534,4.997-1.594c2.81-1.996,4.164-5.473,3.441-8.844 l-8.992-41.961h106.111c20.182,0,36.6-16.419,36.6-36.6v-69.427C512,175.624,495.581,159.205,475.4,159.205z M494.741,265.233 c0,10.665-8.677,19.341-19.341,19.341H358.614c-2.606,0-5.073,1.178-6.712,3.204c-1.638,2.026-2.274,4.685-1.727,7.234 l7.027,32.792l-68.944-41.972c-1.352-0.823-2.904-1.259-4.487-1.259h-28.819c-10.665,0-19.341-8.677-19.341-19.341v-69.427 c0-10.665,8.677-19.341,19.341-19.341h220.446c10.665,0,19.341,8.677,19.341,19.341v69.427H494.741z"/> <path style="fill:#333333;" d="M53.865,71.378h166.543c4.766,0,8.63-3.864,8.63-8.63s-3.864-8.63-8.63-8.63H53.865 c-4.766,0-8.63,3.864-8.63,8.63S49.099,71.378,53.865,71.378z"/> <path style="fill:#333333;" d="M220.408,89.672h-54.595c-4.766,0-8.63,3.864-8.63,8.63s3.864,8.63,8.63,8.63h54.595 c4.766,0,8.63-3.864,8.63-8.63S225.174,89.672,220.408,89.672z"/> <path style="fill:#333333;" d="M53.865,106.932h70.779c4.766,0,8.63-3.864,8.63-8.63s-3.864-8.63-8.63-8.63H53.865 c-4.766,0-8.63,3.864-8.63,8.63S49.099,106.932,53.865,106.932z"/> <path style="fill:#333333;" d="M36.6,450.407h47.425l-8.991,41.948c-0.723,3.37,0.631,6.847,3.44,8.844 c1.492,1.06,3.242,1.595,4.998,1.595c1.551,0,3.104-0.418,4.485-1.258l84.015-51.128h65.699c20.182,0,36.6-16.419,36.6-36.6v-69.44 c0-20.182-16.419-36.6-36.6-36.6H36.6C16.419,307.767,0,324.186,0,344.368v69.44c0,14.787,8.81,28.037,22.436,33.753 C26.922,449.45,31.688,450.407,36.6,450.407z M17.259,344.368c0-10.665,8.677-19.341,19.341-19.341h201.071 c10.665,0,19.341,8.677,19.341,19.341v69.44c0,10.665-8.677,19.341-19.341,19.341h-68.117c-1.582,0-3.134,0.435-4.486,1.258 l-68.956,41.964l7.027-32.783c0.547-2.549-0.089-5.207-1.727-7.234c-1.638-2.027-4.104-3.204-6.712-3.204H36.6 c-2.599,0-5.112-0.503-7.478-1.499c-7.206-3.023-11.863-10.026-11.863-17.841V344.368z"/> <path style="fill:#333333;" d="M53.865,405.493h114.976c4.766,0,8.63-3.864,8.63-8.63s-3.864-8.63-8.63-8.63H53.865 c-4.766,0-8.63,3.864-8.63,8.63S49.099,405.493,53.865,405.493z"/> <path style="fill:#333333;" d="M220.408,388.234h-22.226c-4.766,0-8.63,3.864-8.63,8.63s3.864,8.63,8.63,8.63h22.225 c4.766,0,8.63-3.864,8.63-8.63S225.174,388.234,220.408,388.234z"/> <path style="fill:#333333;" d="M53.865,369.939h41.912c4.766,0,8.63-3.864,8.63-8.63s-3.864-8.63-8.63-8.63H53.865 c-4.766,0-8.63,3.864-8.63,8.63S49.099,369.939,53.865,369.939z"/> <path style="fill:#333333;" d="M136.946,369.939h83.462c4.766,0,8.63-3.864,8.63-8.63s-3.864-8.63-8.63-8.63h-83.462 c-4.766,0-8.63,3.864-8.63,8.63S132.179,369.939,136.946,369.939z"/> <path style="fill:#333333;" d="M465.605,204.11H329.339c-4.766,0-8.63,3.864-8.63,8.63s3.864,8.63,8.63,8.63h136.266 c4.766,0,8.63-3.864,8.63-8.63S470.371,204.11,465.605,204.11z"/> <path style="fill:#333333;" d="M264.743,221.369h32.783c4.766,0,8.63-3.864,8.63-8.63s-3.864-8.63-8.63-8.63h-32.783 c-4.766,0-8.63,3.864-8.63,8.63S259.978,221.369,264.743,221.369z"/> <path style="fill:#333333;" d="M465.605,239.664h-44.574c-4.766,0-8.63,3.864-8.63,8.63s3.864,8.63,8.63,8.63h44.574 c4.766,0,8.63-3.864,8.63-8.63S470.371,239.664,465.605,239.664z"/> <path style="fill:#333333;" d="M391.713,239.664h-126.97c-4.766,0-8.63,3.864-8.63,8.63s3.864,8.63,8.63,8.63h126.97 c4.766,0,8.63-3.864,8.63-8.63S396.48,239.664,391.713,239.664z"/> <path style="fill:#333333;" d="M22.435,148.998c4.486,1.889,9.252,2.848,14.165,2.848h47.425l-8.991,41.948 c-0.723,3.37,0.631,6.847,3.44,8.844c1.492,1.06,3.242,1.595,4.998,1.595c1.551,0,3.104-0.418,4.485-1.258l84.015-51.128h65.699 c20.182,0,36.6-16.419,36.6-36.6V45.805c0-20.182-16.419-36.6-36.6-36.6H36.6C16.419,9.205,0,25.625,0,45.805v69.44 C0,130.033,8.81,143.283,22.435,148.998z M17.259,45.805c0-10.665,8.677-19.341,19.341-19.341h201.071 c10.665,0,19.341,8.677,19.341,19.341v69.44c0,10.665-8.677,19.341-19.341,19.341h-68.117c-1.582,0-3.134,0.435-4.486,1.258 l-68.956,41.964l7.027-32.783c0.547-2.549-0.089-5.207-1.727-7.234c-1.638-2.027-4.104-3.204-6.712-3.204H36.6 c-2.6,0-5.112-0.503-7.478-1.499c-7.206-3.022-11.863-10.025-11.863-17.84V45.805z"/> </g> </g>
</svg>